# Blender v2.90.1 OBJ File: 'wedge.blend'
# www.blender.org
mtllib wedge.mtl
o Cube.001_Cube.002
v -5.911568 -1.000000 -8.952891
v -5.911568 -1.000000 -12.027414
v -5.911568 0.000000 -12.027414
v 5.912061 -1.000000 -8.952891
v 5.912061 -1.000000 -12.027414
v 5.912061 0.000000 -12.027414
v 5.911735 11.823470 3.197340
v 5.911898 0.000000 -8.952891
v 5.911735 11.823470 6.228010
v 5.911735 0.000000 6.228010
v -5.911735 11.823470 3.197340
v -5.911652 0.000000 -8.952891
v -5.911735 11.823470 6.228010
v -5.911735 0.000000 6.228010
vt 0.781540 0.630133
vt 0.809732 0.539305
vt 0.809732 0.630133
vt 0.333335 0.020605
vt 0.000000 0.000000
vt 0.333335 0.000002
vt 0.809732 0.448477
vt 0.781540 0.539305
vt 0.781540 0.448477
vt 0.753347 0.797770
vt 0.781540 0.448479
vt 0.781540 0.797775
vt 0.666670 0.448477
vt 0.753347 0.797772
vt 0.666670 0.797772
vt 0.000004 0.085697
vt 0.000000 0.020603
vt 0.333337 0.586543
vt 0.000006 0.650707
vt 0.000007 0.586541
vt 0.333331 1.000000
vt 0.000000 1.000000
vt 0.666667 0.896955
vt 0.333337 0.807423
vt 0.666667 0.448479
vt 0.333339 0.000002
vt 0.666670 0.000000
vt 1.000000 0.358944
vt 0.666670 0.448477
vt 0.666670 0.000000
vt 0.333337 0.085699
vt 0.781540 0.539305
vt 0.809732 0.539305
vt 0.753347 0.448477
vt 0.753347 0.448477
vt 0.333337 0.650709
vt 0.333337 0.896955
vt 0.333337 0.448479
vt 1.000000 0.448477
vn -1.0000 -0.0001 0.0000
vn 0.0000 0.0000 -1.0000
vn 1.0000 0.0000 0.0000
vn 0.0000 0.0000 1.0000
vn 0.0000 -1.0000 0.0000
vn 0.0000 1.0000 0.0000
vn -1.0000 -0.0000 -0.0000
vn 0.0000 0.7167 -0.6974
vn 1.0000 0.0002 0.0001
usemtl Material
s off
f 12/1/1 2/2/1 1/3/1
f 3/4/2 5/5/2 2/6/2
f 6/7/3 4/8/3 5/9/3
f 8/10/4 1/11/4 4/12/4
f 5/13/5 1/14/5 2/15/5
f 3/4/6 8/16/6 6/17/6
f 11/18/6 9/19/6 7/20/6
f 9/19/4 14/21/4 10/22/4
f 14/23/7 11/24/7 12/25/7
f 12/25/5 10/26/5 14/27/5
f 7/28/3 10/29/3 8/30/3
f 12/31/8 7/20/8 8/16/8
f 12/1/7 3/32/7 2/2/7
f 3/4/2 6/17/2 5/5/2
f 6/7/9 8/33/9 4/8/9
f 8/10/4 12/34/4 1/11/4
f 5/13/5 4/35/5 1/14/5
f 3/4/6 12/31/6 8/16/6
f 11/18/6 13/36/6 9/19/6
f 9/19/4 13/36/4 14/21/4
f 14/23/7 13/37/7 11/24/7
f 12/25/5 8/38/5 10/26/5
f 7/28/3 9/39/3 10/29/3
f 12/31/8 11/18/8 7/20/8
